/* XPM */
static const char *e_logo_xpm[] = {
"24 24 93 2",
"  	c None",
". 	c #393A3A",
"+ 	c #383838",
"@ 	c #393939",
"# 	c #434343",
"$ 	c #555555",
"% 	c #5E5E5E",
"& 	c #5F5F5F",
"* 	c #4C4D4D",
"= 	c #6D6D6D",
"- 	c #717171",
"; 	c #727272",
"> 	c #535353",
", 	c #6B6B6B",
"' 	c #707070",
") 	c #5B5B5B",
"! 	c #6E6E6E",
"~ 	c #6F6F6F",
"{ 	c #747474",
"] 	c #737373",
"^ 	c #5E5F5F",
"/ 	c #5A5A5A",
"( 	c #C6C6C6",
"_ 	c #FCFCFC",
": 	c #FFFFFF",
"< 	c #595959",
"[ 	c #6A6A6A",
"} 	c #7C7C7C",
"| 	c #DFDFDF",
"1 	c #555656",
"2 	c #909090",
"3 	c #898989",
"4 	c #414141",
"5 	c #464646",
"6 	c #919191",
"7 	c #626363",
"8 	c #444444",
"9 	c #525252",
"0 	c #4F5050",
"a 	c #3C3D3D",
"b 	c #323333",
"c 	c #313232",
"d 	c #333333",
"e 	c #4E4E4E",
"f 	c #474747",
"g 	c #575757",
"h 	c #616161",
"i 	c #545454",
"j 	c #515252",
"k 	c #404040",
"l 	c #4A4A4A",
"m 	c #636363",
"n 	c #6B6C6B",
"o 	c #5F5F5E",
"p 	c #616160",
"q 	c #60605F",
"r 	c #555554",
"s 	c #727372",
"t 	c #8A8A8A",
"u 	c #5D5D5C",
"v 	c #636362",
"w 	c #323232",
"x 	c #5D5E5D",
"y 	c #A9A9A9",
"z 	c #5E5E5D",
"A 	c #6C6C6B",
"B 	c #3F403F",
"C 	c #484948",
"D 	c #CACACA",
"E 	c #484848",
"F 	c #50504F",
"G 	c #434342",
"H 	c #3E3E3E",
"I 	c #565655",
"J 	c #515150",
"K 	c #454545",
"L 	c #393A39",
"M 	c #343534",
"N 	c #2F2F2F",
"O 	c #2C2C2C",
"P 	c #292929",
"Q 	c #474746",
"R 	c #515251",
"S 	c #4B4B4A",
"T 	c #454544",
"U 	c #3B3B3A",
"V 	c #575857",
"W 	c #535352",
"X 	c #545453",
"Y 	c #525251",
"Z 	c #9D9D9C",
"` 	c #4E4E4D",
" .	c #A8A8A8",
"      . + @ @ @ @ @ @ @ @ @ @ @ @ @ + .         ",
"    # $ % & & & & & & & & & & & & & % $ #       ",
"  * % = - ; ; ; ; ; ; ; ; ; ; ; ; ; - = % *     ",
"  > , ' ' ' ' ' ' ' ' ' ' ' ' ' ' ' ' ' , >     ",
"  ) ! ~ ~ ' { { { { { { { { { { { { { { ] ^     ",
"  / = = - ( _ : : : : : : : : : : : : : :       ",
"  < [ } |   $                                   ",
"  1 2   3 4 5                                   ",
"  6   7 8 9 0 a b b b b b c d                   ",
"    e f g h & g i i i i i j 5                   ",
"  k l < h m m m m m m m m h i                   ",
"    n o p p p p p p p p p q r                   ",
"  s   t u o o o o o o o o u v                   ",
"  w x   y z A : : : : : : :                     ",
"  B k C   D [                                   ",
"  E F G H                                       ",
"  E I J K L M N O O O O O O O O O O O O O P     ",
"  Q r r R S 5 T T T T T T T T T T T T T T U     ",
"  V W X X X W W W W W W W W W W W W W W Y I     ",
"  Z ` Y Y Y Y Y Y Y Y Y Y Y Y Y Y Y Y Y ` Z     ",
"     .v F J J J J J J J J J J J J J F v  .      ",
"        : : : : : : : : : : : : : : :           ",
"                                                ",
"                                                "};
